#N canvas 419 173 1868 1205 10;
#X obj 1037 180 s STOP_MOTOR-M;
#X obj 1037 163 bng 15 250 50 0 empty empty STOP 17 7 0 10 -258113
-1 -1;
#X obj 657 52 OSC/OSCreceiver 5000 pd-motor-stepper;
#X obj 657 223 s 3-motor-5011;
#X obj 720 203 s 3-motor-5012;
#X obj 783 183 s 3-motor-5013;
#X obj 846 163 s 3-motor-5014;
#X obj 909 143 s 3-motor-5015;
#X obj 1037 143 routeOSC /stop;
#X obj 657 99 routeOSC /SHIELD-1 /SHIELD-2 /SHIELD-3 /SHIELD-4 /SHIELD-5
;
#X msg 319 1123 /dir 0 0 0;
#X obj 225 245 OSC/OSCsender 127.0.0.1 5012 MIROIR2;
#X obj 442 245 OSC/OSCsender 127.0.0.1 5013 MIROIR3;
#X obj 226 178 OSC/OSCsender 127.0.0.1 5014 MIROIR-LOINT;
#X obj 14 245 OSC/OSCsender 127.0.0.1 5011 MIROIR1;
#X obj 226 137 OSC/OSCsender 127.0.0.1 5050 3MOT;
#X msg 57 482 /zero 1;
#X msg 142 483 /run 1;
#X msg 554 1075 /moveto 0 0 0;
#X msg 1693 1094 /maxspeed 1000 1000 1000;
#X msg 974 1092 /acceleration 1000 1000 1000;
#X msg 554 1152 /moveto 32767 32767 32767;
#X msg 318 1101 /dir 1 1 1;
#X msg 714 1181 /dir 0 1 1;
#X msg 1253 1109 /maxspeed 800 1200 1200;
#X msg 554 1179 /moveto 7000 10000 10000;
#X msg 554 1206 /moveto 10000 7000 7000;
#X msg 713 1205 /dir 1 0 0;
#X msg 1253 1086 /maxspeed 1200 1200 1200;
#X obj 80 103 spigot;
#X obj 113 79 tgl 15 0 empty empty empty 17 7 0 10 -262144 -1 -1 0
1;
#X obj 142 103 spigot;
#X obj 175 79 tgl 15 0 empty empty empty 17 7 0 10 -262144 -1 -1 0
1;
#X obj 201 103 spigot;
#X obj 234 79 tgl 15 0 empty empty empty 17 7 0 10 -262144 -1 -1 0
1;
#X obj 263 103 spigot;
#X obj 296 79 tgl 15 0 empty empty empty 17 7 0 10 -262144 -1 -1 0
1;
#X obj 325 103 spigot;
#X obj 358 79 tgl 15 0 empty empty empty 17 7 0 10 -262144 -1 -1 0
1;
#X obj 63 23 r to_motor;
#X obj 225 1334 s to_motor;
#X msg 554 1233 /moveto 0 32767 0;
#X obj 316 545 tgl 15 0 empty empty ALL 17 7 0 10 -262144 -1 -1 1 1
;
#X msg 1694 1074 /maxspeed \$1 \$1 \$1;
#X msg 975 1064 /acceleration \$1 \$1 \$1;
#X msg 554 1260 /moveto \$1 \$1 \$1;
#X msg 1253 1059 /maxspeed \$1 \$1 \$1;
#X floatatom 747 1244 5 0 32767 0 - - -;
#X floatatom 1182 1049 5 0 32767 0 - - -;
#X floatatom 1793 1044 5 0 32767 0 - - -;
#X floatatom 747 1274 5 0 32767 0 - - -;
#X floatatom 747 1304 5 0 32767 0 - - -;
#X floatatom 767 1334 5 0 32767 0 - - -;
#X msg 554 1290 /moveto 0 \$1 \$1;
#X msg 554 1320 /moveto \$1 0 0;
#X floatatom 727 1364 5 0 32767 0 - - -;
#X msg 574 1350 /moveto 0 \$1 0;
#X msg 534 1380 /moveto 0 0 \$1;
#X floatatom 1431 1042 5 0 32767 0 - - -;
#X msg 843 1225 set \$1;
#X floatatom 843 1193 5 0 32767 0 - - -;
#X obj 718 1241 bng 15 250 50 0 empty empty empty 17 7 0 10 -262144
-1 -1;
#X obj 718 1271 bng 15 250 50 0 empty empty empty 17 7 0 10 -262144
-1 -1;
#X obj 718 1301 bng 15 250 50 0 empty empty empty 17 7 0 10 -262144
-1 -1;
#X obj 738 1331 bng 15 250 50 0 empty empty empty 17 7 0 10 -262144
-1 -1;
#X obj 698 1361 bng 15 250 50 0 empty empty empty 17 7 0 10 -262144
-1 -1;
#X msg 554 1132 /moveto 30000 30000 30000;
#X msg 554 1102 /moveto 32767 28000 28000;
#X obj 421 64 tgl 15 0 empty empty empty 17 7 0 10 -1 -262144 -262144
0 1;
#X obj 57 450 bng 15 250 50 0 empty empty set_zero 17 7 0 10 -232576
-1 -1;
#X obj 142 450 bng 15 250 50 0 empty empty run 17 7 0 10 -4034 -1 -1
;
#X floatatom 316 946 5 0 0 0 - - -;
#X floatatom 356 946 5 0 0 0 - - -;
#X floatatom 396 946 5 0 0 0 - - -;
#X obj 316 978 pack f f f;
#X obj 438 840 bng 15 250 50 0 empty empty send 17 7 0 10 -204786 -1
-1;
#X obj 438 910 t b b b;
#X obj 316 770 tgl 15 0 empty empty empty 17 7 0 10 -262144 -1 -1 0
1;
#X msg 316 790 set \$1;
#X obj 366 770 tgl 15 0 empty empty empty 17 7 0 10 -262144 -1 -1 0
1;
#X msg 366 790 set \$1;
#X obj 416 770 tgl 15 0 empty empty empty 17 7 0 10 -262144 -1 -1 0
1;
#X msg 416 790 set \$1;
#X msg 316 1026 /dir \$1 \$2 \$3;
#X floatatom 556 946 5 0 0 0 - - -;
#X floatatom 596 946 5 0 0 0 - - -;
#X floatatom 636 946 5 0 0 0 - - -;
#X obj 556 978 pack f f f;
#X obj 651 840 bng 15 250 50 0 empty empty send 17 7 0 10 -204786 -1
-1;
#X obj 678 910 t b b b;
#X msg 556 790 set \$1;
#X msg 606 790 set \$1;
#X msg 656 790 set \$1;
#X floatatom 556 769 5 0 32767 0 - - -;
#X floatatom 606 769 5 0 32767 0 - - -;
#X floatatom 656 769 5 0 32767 0 - - -;
#X obj 311 511 > 0;
#X msg 529 408 0;
#X obj 529 388 bng 15 250 50 0 empty empty zero 17 7 0 10 -204786 -1
-1;
#X msg 556 1026 /moveto \$1 \$2 \$3;
#X obj 651 872 t b b;
#X obj 666 366 vsl 15 320 -37767 37767 0 0 empty empty move_to 0 -9
0 10 -4032 -159808 -159808 15950 1;
#X obj 797 331 vsl 15 320 -37767 37767 0 0 empty empty move_to 0 -9
0 10 -204800 -159808 -159808 15950 1;
#X obj 797 682 t a a;
#X obj 797 705 > 0;
#X obj 797 659 int;
#X obj 824 705 abs;
#X obj 857 331 vsl 15 320 -37767 37767 0 0 empty empty move_to 0 -9
0 10 -204800 -159808 -159808 12850 1;
#X obj 857 682 t a a;
#X obj 857 705 > 0;
#X obj 857 659 int;
#X obj 884 705 abs;
#X obj 917 331 vsl 15 320 -37767 37767 0 0 empty empty move_to 0 -9
0 10 -204800 -159808 -159808 12550 1;
#X obj 917 682 t a a;
#X obj 917 705 > 0;
#X obj 917 659 int;
#X obj 944 705 abs;
#X connect 1 0 0 0;
#X connect 2 0 9 0;
#X connect 8 0 1 0;
#X connect 9 0 3 0;
#X connect 9 1 4 0;
#X connect 9 2 5 0;
#X connect 9 3 6 0;
#X connect 9 4 7 0;
#X connect 9 5 8 0;
#X connect 10 0 40 0;
#X connect 16 0 40 0;
#X connect 17 0 40 0;
#X connect 18 0 40 0;
#X connect 19 0 40 0;
#X connect 20 0 40 0;
#X connect 21 0 40 0;
#X connect 22 0 40 0;
#X connect 23 0 40 0;
#X connect 24 0 40 0;
#X connect 25 0 40 0;
#X connect 26 0 40 0;
#X connect 27 0 40 0;
#X connect 28 0 40 0;
#X connect 29 0 14 0;
#X connect 30 0 29 1;
#X connect 31 0 11 0;
#X connect 32 0 31 1;
#X connect 33 0 12 0;
#X connect 34 0 33 1;
#X connect 35 0 13 0;
#X connect 36 0 35 1;
#X connect 37 0 15 0;
#X connect 38 0 37 1;
#X connect 39 0 35 0;
#X connect 39 0 33 0;
#X connect 39 0 31 0;
#X connect 39 0 29 0;
#X connect 39 0 37 0;
#X connect 41 0 40 0;
#X connect 42 0 77 0;
#X connect 42 0 79 0;
#X connect 42 0 81 0;
#X connect 43 0 40 0;
#X connect 44 0 40 0;
#X connect 45 0 40 0;
#X connect 46 0 40 0;
#X connect 47 0 45 0;
#X connect 48 0 44 0;
#X connect 49 0 43 0;
#X connect 50 0 53 0;
#X connect 51 0 54 0;
#X connect 52 0 56 0;
#X connect 53 0 40 0;
#X connect 54 0 40 0;
#X connect 55 0 57 0;
#X connect 56 0 40 0;
#X connect 57 0 40 0;
#X connect 58 0 46 0;
#X connect 59 0 47 0;
#X connect 59 0 50 0;
#X connect 59 0 55 0;
#X connect 59 0 52 0;
#X connect 59 0 51 0;
#X connect 60 0 59 0;
#X connect 61 0 47 0;
#X connect 62 0 50 0;
#X connect 63 0 51 0;
#X connect 64 0 52 0;
#X connect 65 0 55 0;
#X connect 66 0 40 0;
#X connect 67 0 40 0;
#X connect 68 0 38 0;
#X connect 68 0 36 0;
#X connect 68 0 34 0;
#X connect 68 0 32 0;
#X connect 68 0 30 0;
#X connect 69 0 16 0;
#X connect 70 0 17 0;
#X connect 71 0 74 0;
#X connect 72 0 74 1;
#X connect 73 0 74 2;
#X connect 74 0 83 0;
#X connect 75 0 76 0;
#X connect 76 0 71 0;
#X connect 76 1 72 0;
#X connect 76 2 73 0;
#X connect 77 0 78 0;
#X connect 78 0 71 0;
#X connect 79 0 80 0;
#X connect 80 0 72 0;
#X connect 81 0 82 0;
#X connect 82 0 73 0;
#X connect 83 0 40 0;
#X connect 84 0 87 0;
#X connect 85 0 87 1;
#X connect 86 0 87 2;
#X connect 87 0 99 0;
#X connect 88 0 100 0;
#X connect 89 0 84 0;
#X connect 89 1 85 0;
#X connect 89 2 86 0;
#X connect 90 0 84 0;
#X connect 91 0 85 0;
#X connect 92 0 86 0;
#X connect 93 0 90 0;
#X connect 94 0 91 0;
#X connect 95 0 92 0;
#X connect 96 0 42 0;
#X connect 97 0 101 0;
#X connect 98 0 97 0;
#X connect 99 0 40 0;
#X connect 100 0 76 0;
#X connect 100 1 89 0;
#X connect 101 0 102 0;
#X connect 101 0 107 0;
#X connect 101 0 112 0;
#X connect 102 0 105 0;
#X connect 103 0 104 0;
#X connect 103 1 106 0;
#X connect 104 0 77 0;
#X connect 105 0 103 0;
#X connect 106 0 93 0;
#X connect 107 0 110 0;
#X connect 108 0 109 0;
#X connect 108 1 111 0;
#X connect 109 0 79 0;
#X connect 110 0 108 0;
#X connect 111 0 94 0;
#X connect 112 0 115 0;
#X connect 113 0 114 0;
#X connect 113 1 116 0;
#X connect 114 0 81 0;
#X connect 115 0 113 0;
#X connect 116 0 95 0;
#X coords 0 1205 1 1204 600 100 0;
