#N canvas 854 99 1611 770 10;
#X obj 1542 -73 cnv 15 100 60 empty empty empty 20 12 0 14 -233017
-66577 0;
#X obj 1542 7 cnv 15 100 60 empty empty empty 20 12 0 14 -233017 -66577
0;
#X obj 1542 87 cnv 15 100 60 empty empty empty 20 12 0 14 -233017 -66577
0;
#X obj 1542 167 cnv 15 100 60 empty empty empty 20 12 0 14 -233017
-66577 0;
#X msg 1546 -52 vitesse 600;
#X msg 1546 -72 vitesse 1000;
#X msg 1548 169 stop;
#X msg 1548 188 run;
#X msg 1548 207 kill;
#X msg 1546 -32 vitesse 400;
#X msg 1543 10 mouvement 1 200 1 200 1 200;
#X msg 1543 30 mouvement 0 200 0 200 0 200;
#X msg 1543 100 mouvement 0 0 0 0 0 0;
#X msg 1543 120 mouvement 1 0 1 0 1 0;
#X obj 1146 62 s STOP_MOTOR-M;
#X obj 1146 36 bng 15 250 50 0 empty empty STOP 17 7 0 10 -258113 -1
-1;
#X msg 1543 50 mouvement 0 2000 0 2000 0 2000;
#X msg 1023 479 mouvement 1 200 0 0 0 0;
#X msg 1023 499 mouvement 0 200 0 0 0 0;
#X msg 1268 373 mouvement 0 0 1 200 0 0;
#X msg 1268 393 mouvement 0 0 0 200 0 0;
#X msg 1020 284 mouvement 0 0 0 0 1 200;
#X msg 1020 304 mouvement 0 0 0 0 0 200;
#X msg 1014 378 mouvement 1 200 0 0 1 200;
#X msg 1014 398 mouvement 0 200 0 0 0 200;
#X obj 1105 -157 tgl 15 1 empty empty UP 17 7 0 10 -262144 -1 -1 1
1;
#X obj 1105 -137 tgl 15 0 empty empty DOWN 17 7 0 10 -262144 -1 -1
0 1;
#X msg 819 575 mouvement 0 0 0 0 1 1000;
#X msg 819 595 mouvement 0 0 0 0 0 1000;
#X msg 813 669 mouvement 1 1000 0 0 1 1000;
#X msg 813 689 mouvement 0 1000 0 0 0 1000;
#X msg 822 770 mouvement 1 1000 0 0 0 0;
#X msg 822 790 mouvement 0 1000 0 0 0 0;
#X msg 1067 664 mouvement 0 0 1 1000 0 0;
#X msg 1067 684 mouvement 0 0 0 1000 0 0;
#X msg 1028 167 mouvement 1 0 1 3000 1 5000;
#X msg 1031 203 mouvement 0 0 0 3000 0 5000;
#X msg 1497 379 mouvement 1 6000 0 6000 1 6000;
#X msg 1497 404 mouvement 0 6000 1 6000 0 6000;
#X msg 1687 379 mouvement 1 0 0 6000 1 0;
#X msg 1687 404 mouvement 0 6000 1 0 0 6000;
#X text 1103 -107 i2cdetect -y 1;
#X obj 6 -227 STEPMOTOR/3Step-Motor 5011;
#X msg 1212 -200 \; Python-I2C-1 connect 127.0.0.1 5005;
#X obj 6 -127 STEPMOTOR/3Step-Motor 5012;
#X obj 6 -27 STEPMOTOR/3Step-Motor 5013;
#X obj 1394 241 s 3-motor-5011;
#X obj 766 -206 OSC/OSCreceiver 5000 pd-motor-stepper;
#X obj 766 99 s 3-motor-5011;
#X obj 829 79 s 3-motor-5012;
#X obj 892 59 s 3-motor-5013;
#X obj 955 39 s 3-motor-5014;
#X obj 1018 19 s 3-motor-5015;
#X obj 1146 6 routeOSC /stop;
#X obj 766 -25 routeOSC /SHIELD-1 /SHIELD-2 /SHIELD-3 /SHIELD-4 /SHIELD-5
;
#X obj 8 73 STEPMOTOR/3Step-Motor 5014;
#X obj 21 187 STEPMOTOR/3Step-Motor 5015;
#X obj 265 451 OSC/OSCsender 127.0.0.1 5050 3mot;
#X msg 547 329 /run 1;
#X msg 560 353 /zero 1;
#X msg 629 404 /moveto 1000 1000 1000;
#X msg 629 431 /acceleration 100 100 100;
#X msg 630 379 /maxspeed 500 500 500;
#X msg 596 475 /maxspeed 500 600 700;
#X msg 595 500 /moveto 1000 2000 3000;
#X msg 595 527 /acceleration 50 100 200;
#X msg 261 348 /dir 0 0 0;
#X msg 306 395 /dir 0 -1 0;
#X connect 4 0 46 0;
#X connect 5 0 46 0;
#X connect 6 0 46 0;
#X connect 7 0 46 0;
#X connect 8 0 46 0;
#X connect 9 0 46 0;
#X connect 10 0 46 0;
#X connect 11 0 46 0;
#X connect 12 0 46 0;
#X connect 13 0 46 0;
#X connect 15 0 14 0;
#X connect 16 0 46 0;
#X connect 17 0 46 0;
#X connect 18 0 46 0;
#X connect 19 0 46 0;
#X connect 20 0 46 0;
#X connect 21 0 46 0;
#X connect 22 0 46 0;
#X connect 23 0 46 0;
#X connect 24 0 46 0;
#X connect 27 0 46 0;
#X connect 28 0 46 0;
#X connect 29 0 46 0;
#X connect 30 0 46 0;
#X connect 31 0 46 0;
#X connect 32 0 46 0;
#X connect 33 0 46 0;
#X connect 34 0 46 0;
#X connect 35 0 46 0;
#X connect 36 0 46 0;
#X connect 37 0 46 0;
#X connect 38 0 46 0;
#X connect 39 0 46 0;
#X connect 40 0 46 0;
#X connect 47 0 54 0;
#X connect 53 0 15 0;
#X connect 54 0 48 0;
#X connect 54 1 49 0;
#X connect 54 2 50 0;
#X connect 54 3 51 0;
#X connect 54 4 52 0;
#X connect 54 5 53 0;
#X connect 58 0 57 0;
#X connect 59 0 57 0;
#X connect 60 0 57 0;
#X connect 61 0 57 0;
#X connect 62 0 57 0;
#X connect 63 0 57 0;
#X connect 64 0 57 0;
#X connect 65 0 57 0;
#X connect 66 0 57 0;
#X connect 67 0 57 0;
#X coords 0 770 1 769 600 100 0;
